# xmcd
#
# Track frame offsets:
#	150
#	20370
#	41100
#	60085
#	75235
#	97800
#	116775
#	138450
#	156750
#	176175
#	198825
#	228550
#	236050
#
# Disc length: 3970 seconds
# Revision: 0
# Processed by: cddbd v1.5.2PL0 Copyright (c) Steve Scherf et al.
# Submitted via: dBpowerAMP V12.0
#
DISCID=9f0f800d
DTITLE=Milly Quezada - MQ
DYEAR=2005
DGENRE=Latin
TTITLE0=Quiero Ser
TTITLE1=Me Da Pena
TTITLE2=Caro
TTITLE3=La Mala Palabra A.K.A. ''Vamo' Pa' La Calle'' (Featuring Hector ''El Father'')
TTITLE4=Si Me Amaras
TTITLE5=Ole Y Ole
TTITLE6=Eclipse Total Del Amor A.K.A. ''Total Eclipse Of The Heart''
TTITLE7=Aunque Me Parta En Dos
TTITLE8=Como Si No Hubieran Duendes
TTITLE9=Con Esta Tristeza A.K.A. ''Me Falta El Cielo''
TTITLE10=Yo Soy Mujer Y No Soy Una Santa
TTITLE11=DATA
TTITLE12=DATA
EXTD=
EXTT0=
EXTT1=
EXTT2=
EXTT3=
EXTT4=
EXTT5=
EXTT6=
EXTT7=
EXTT8=
EXTT9=
EXTT10=
EXTT11=
EXTT12=
PLAYORDER=
